<?xml version="1.0" encoding="UTF-8" standalone="no"?>
<!DOCTYPE svg PUBLIC "-//W3C//DTD SVG 1.1//EN" "http://www.w3.org/Graphics/SVG/1.1/DTD/svg11.dtd">
<svg width="100%" height="100%" viewBox="0 0 512 256" version="1.1" xmlns="http://www.w3.org/2000/svg" xmlns:xlink="http://www.w3.org/1999/xlink" xml:space="preserve" xmlns:serif="http://www.serif.com/" style="fill-rule:evenodd;clip-rule:evenodd;stroke-linejoin:round;stroke-miterlimit:2;">
    <g transform="matrix(1,0,0,1,-1343.59,-1562.59)">
        <g id="Artboard2" transform="matrix(1,0,0,0.5,781.585,1562.59)">
            <rect x="562" y="0" width="512" height="512" style="fill:none;"/>
            <g transform="matrix(1.24358,0,0,1.24358,-213.851,-83.7549)">
                <g transform="matrix(0.804132,0,0,1.60826,-260.512,-505.351)">
                    <path d="M1330.9,547.994C1330.9,551.025 1330.11,553.88 1328.54,556.558C1326.96,559.236 1324.6,561.575 1321.44,563.576C1318.29,565.577 1314.36,567.159 1309.65,568.321C1304.94,569.484 1299.43,570.065 1293.12,570.065C1286.82,570.065 1281.3,569.484 1276.55,568.321C1271.81,567.159 1267.86,565.577 1264.71,563.576C1261.56,561.575 1259.19,559.236 1257.62,556.558C1256.04,553.88 1255.26,551.025 1255.26,547.994L1255.26,508.782C1255.26,508.782 1271.22,510.04 1272.14,519.973C1272.57,524.62 1272.4,542.123 1272.4,542.123C1272.4,544.154 1272.68,546.074 1273.22,547.884C1273.76,549.694 1274.78,551.275 1276.28,552.629C1277.77,553.983 1279.88,555.057 1282.58,555.851C1285.28,556.646 1288.8,557.043 1293.12,557.043C1297.42,557.043 1300.91,556.646 1303.6,555.851C1306.29,555.057 1308.38,553.983 1309.88,552.629C1311.38,551.275 1312.39,549.694 1312.92,547.884C1313.44,546.074 1313.7,544.154 1313.7,542.123L1313.7,507.953L1330.9,507.782L1330.9,547.994ZM1236.25,546.008C1236.25,550.039 1235.56,553.512 1234.19,556.425C1232.81,559.339 1230.8,561.737 1228.16,563.62C1225.52,565.504 1222.28,566.894 1218.45,567.792C1214.62,568.689 1210.25,569.138 1205.33,569.138C1203.02,569.138 1200.64,569.028 1198.2,568.807C1195.76,568.586 1193.41,568.314 1191.15,567.99C1188.89,567.667 1186.82,567.321 1184.92,566.953C1183.02,566.585 1181.43,566.239 1180.16,565.916L1180.16,551.702C1181.46,552.202 1182.88,552.71 1184.43,553.225C1185.98,553.74 1187.7,554.203 1189.6,554.615C1191.5,555.027 1193.6,555.366 1195.9,555.631C1198.2,555.896 1200.75,556.028 1203.53,556.028C1206.52,556.028 1209.02,555.712 1211.01,555.079C1213.01,554.446 1214.61,553.563 1215.81,552.43C1217.02,551.298 1217.87,549.966 1218.36,548.436C1218.85,546.905 1219.1,545.228 1219.1,543.404C1219.1,543.404 1219.39,524.956 1219.36,520.022C1219.3,509.253 1236.25,508.782 1236.25,508.782L1236.25,546.008ZM1539.95,528.484C1539.95,531.515 1539.48,534.303 1538.56,536.849C1537.63,539.394 1536.14,541.586 1534.08,543.426C1532.03,545.265 1529.36,546.699 1526.09,547.729C1522.81,548.759 1518.83,549.274 1514.13,549.274L1485.58,549.274L1485.58,568.432L1468.38,568.432L1468.38,507.782L1514.13,507.782C1518.83,507.782 1522.81,508.289 1526.09,509.304C1529.36,510.32 1532.03,511.747 1534.08,513.586C1536.14,515.425 1537.63,517.61 1538.56,520.141C1539.48,522.672 1539.95,525.453 1539.95,528.484ZM1431.35,568.432L1431.35,525.835L1407.71,568.432L1391.2,568.432L1367.57,525.835L1367.57,568.432L1350.37,568.432L1350.37,507.782L1373.73,507.782L1399.45,553.688L1425.18,507.782L1448.45,507.782L1448.45,568.432L1431.35,568.432ZM1522.57,528.749C1522.57,527.336 1522.36,526.122 1521.94,525.107C1521.52,524.092 1520.84,523.26 1519.88,522.613C1518.92,521.966 1517.67,521.487 1516.12,521.178C1514.58,520.869 1512.68,520.715 1510.42,520.715L1485.58,520.715L1485.58,536.341L1510.42,536.341C1512.68,536.341 1514.58,536.216 1516.12,535.966C1517.67,535.716 1518.92,535.289 1519.88,534.686C1520.84,534.082 1521.52,533.295 1521.94,532.324C1522.36,531.353 1522.57,530.161 1522.57,528.749ZM1203.23,468.284C1205.31,485.947 1220.21,499.713 1238.36,500.007C1220.58,500.58 1206.05,514.08 1203.85,531.408C1201.63,513.874 1186.78,500.259 1168.71,499.993C1186.58,499.406 1201.18,485.751 1203.23,468.284ZM1285.46,467.863C1287.54,485.526 1302.43,499.292 1320.59,499.587C1302.81,500.159 1288.27,513.659 1286.08,530.987C1283.86,513.454 1269,499.839 1250.93,499.572C1268.81,498.985 1283.4,485.331 1285.46,467.863ZM1203.23,489.667C1206.18,493.762 1209.81,497.331 1213.95,500.206C1210.07,502.995 1206.65,506.401 1203.85,510.282C1200.9,506.196 1197.28,502.635 1193.13,499.768C1197.02,496.972 1200.43,493.557 1203.23,489.667L1203.23,489.667ZM1285.46,489.247C1288.4,493.341 1292.03,496.911 1296.18,499.785C1292.29,502.574 1288.88,505.98 1286.08,509.861C1283.13,505.775 1279.5,502.214 1275.35,499.348C1279.24,496.551 1282.66,493.136 1285.46,489.247L1285.46,489.247ZM1245.01,422.519C1225.8,422.519 1210.2,438.114 1210.2,457.321C1210.2,476.529 1225.8,492.124 1245.01,492.124C1264.21,492.124 1279.81,476.529 1279.81,457.321C1279.81,438.114 1264.21,422.519 1245.01,422.519ZM1191.01,466.784C1191.01,470.815 1190.32,474.288 1188.94,477.201C1187.57,480.114 1185.56,482.513 1182.92,484.396C1180.28,486.279 1177.04,487.67 1173.21,488.567C1169.38,489.465 1165.01,489.914 1160.09,489.914C1157.77,489.914 1155.39,489.803 1152.95,489.583C1150.51,489.362 1148.16,489.09 1145.91,488.766C1143.65,488.442 1141.57,488.096 1139.67,487.729C1137.77,487.361 1136.19,487.015 1134.92,486.691L1134.92,472.478C1136.22,472.978 1137.64,473.486 1139.19,474.001C1140.73,474.516 1142.45,474.979 1144.36,475.391C1146.26,475.803 1148.36,476.141 1150.66,476.406C1152.96,476.671 1155.5,476.804 1158.28,476.804C1161.28,476.804 1163.78,476.487 1165.77,475.855C1167.76,475.222 1169.36,474.339 1170.57,473.206C1171.77,472.073 1172.62,470.742 1173.12,469.211C1173.61,467.681 1173.86,466.004 1173.86,464.179L1173.86,424.744C1173.86,424.744 1180.28,426.174 1183.98,428.916C1189.78,433.212 1190.7,437.331 1190.7,437.331L1191.01,466.784ZM1338.5,489.207L1318.48,489.207L1295.34,445.758C1295.34,445.758 1295.99,442.493 1298.68,437.795C1301.41,433.024 1306.86,430.525 1306.86,430.525L1328.63,474.199L1351.76,428.557L1370.95,428.557L1338.5,489.207ZM1381.38,489.207L1381.38,428.557L1398.57,428.557L1398.57,489.207L1381.38,489.207ZM1565.44,489.207L1522.47,447.538L1522.47,489.207L1505.27,489.207L1505.27,428.557L1523.95,428.557L1566.97,470.403L1566.97,428.557L1584.07,428.557L1584.07,489.207L1565.44,489.207ZM1469.67,477.731L1434.17,477.731L1428.19,489.207L1409,489.207L1442.33,428.557L1461.52,428.557L1494.84,489.207L1475.65,489.207L1469.67,477.731ZM1245.01,434.772C1257.51,434.772 1267.66,444.924 1267.66,457.429C1267.66,469.933 1257.51,480.085 1245.01,480.085C1232.5,480.085 1222.35,469.933 1222.35,457.429C1222.35,444.924 1232.5,434.772 1245.01,434.772ZM1440.34,465.901L1463.6,465.901L1452.02,443.565L1440.34,465.901ZM1203.23,384.133C1205.31,401.796 1220.21,415.562 1238.36,415.857C1220.58,416.429 1206.05,429.929 1203.85,447.257C1201.63,429.723 1186.78,416.109 1168.71,415.842C1186.58,415.255 1201.18,401.6 1203.23,384.133ZM1285.46,384.133C1287.54,401.796 1302.43,415.562 1320.59,415.857C1302.81,416.429 1288.27,429.929 1286.08,447.257C1283.86,429.723 1269,416.109 1250.93,415.842C1268.81,415.255 1283.4,401.6 1285.46,384.133ZM1203.23,405.517C1206.18,409.611 1209.81,413.181 1213.95,416.055C1210.07,418.844 1206.65,422.25 1203.85,426.131C1200.9,422.045 1197.28,418.484 1193.13,415.618C1197.02,412.821 1200.43,409.406 1203.23,405.517L1203.23,405.517ZM1285.46,405.517C1288.4,409.611 1292.03,413.181 1296.18,416.055C1292.29,418.844 1288.88,422.25 1286.08,426.131C1283.13,422.045 1279.5,418.484 1275.35,415.618C1279.24,412.821 1282.66,409.406 1285.46,405.517L1285.46,405.517Z" style="fill:url(#_Linear1);"/>
                </g>
            </g>
        </g>
    </g>
    <defs>
        <linearGradient id="_Linear1" x1="0" y1="0" x2="1" y2="0" gradientUnits="userSpaceOnUse" gradientTransform="matrix(-2.95608,-195.812,82.3629,-1.24339,1372.21,603.979)"><stop offset="0" style="stop-color:rgb(55,38,30);stop-opacity:1"/><stop offset="0.45" style="stop-color:rgb(208,130,81);stop-opacity:1"/><stop offset="1" style="stop-color:rgb(224,204,164);stop-opacity:1"/></linearGradient>
    </defs>
</svg>
